<svg width="10" height="12" viewBox="0 0 10 12" fill="none" xmlns="http://www.w3.org/2000/svg">
<path d="M4.117 0.575999C5.13033 0.575999 5.97833 0.671999 6.661 0.863999C7.35433 1.04533 7.87167 1.34933 8.213 1.776C8.565 2.192 8.741 2.75733 8.741 3.472C8.741 3.89867 8.67167 4.288 8.533 4.64C8.39433 4.992 8.19167 5.28 7.925 5.504C7.669 5.728 7.35433 5.872 6.981 5.936V6.016C7.365 6.09067 7.71167 6.224 8.021 6.416C8.33033 6.608 8.57567 6.88533 8.757 7.248C8.93833 7.61067 9.029 8.09067 9.029 8.688C9.029 9.38133 8.85833 9.97867 8.517 10.48C8.18633 10.9707 7.70633 11.3493 7.077 11.616C6.44767 11.872 5.701 12 4.837 12H0.565V0.575999H4.117ZM4.389 5.104C5.093 5.104 5.57833 4.992 5.845 4.768C6.12233 4.544 6.261 4.21867 6.261 3.792C6.261 3.35467 6.101 3.04 5.781 2.848C5.461 2.656 4.95433 2.56 4.261 2.56H2.981V5.104H4.389ZM2.981 7.024V10H4.565C5.29033 10 5.797 9.86133 6.085 9.584C6.373 9.296 6.517 8.91733 6.517 8.448C6.517 8.16 6.453 7.90933 6.325 7.696C6.20767 7.48267 5.99967 7.31733 5.701 7.2C5.40233 7.08267 4.997 7.024 4.485 7.024H2.981Z" fill="#5C5C5C"/>
</svg>
